<?xml version="1.0" encoding="UTF-8" standalone="no"?>
<svg width="970px" height="821px" viewBox="0 0 970 821" version="1.1" xmlns="http://www.w3.org/2000/svg" xmlns:xlink="http://www.w3.org/1999/xlink">
    <!-- Generator: Sketch 3.8.3 (29802) - http://www.bohemiancoding.com/sketch -->
    <title>cubic02</title>
    <desc>Created with Sketch.</desc>
    <defs></defs>
    <g id="Page-1" stroke="none" stroke-width="1" fill="none" fill-rule="evenodd">
        <g id="cubic02">
            <path d="M85,110 L85,10" id="Shape" stroke="#888888" stroke-width="2"></path>
            <path d="M385,10 L385,110" id="Shape" stroke="#888888" stroke-width="2"></path>
            <path d="M85,110 C85,10 385,10 385,110" id="Shape" stroke="#FF0000" stroke-width="5"></path>
            <circle id="Oval" stroke="#888888" stroke-width="2" cx="85" cy="110" r="10"></circle>
            <circle id="Oval" stroke="#888888" stroke-width="2" cx="385" cy="110" r="10"></circle>
            <circle id="Oval" fill="#888888" cx="85" cy="10" r="10"></circle>
            <circle id="Oval" fill="#888888" cx="385" cy="10" r="10"></circle>
            <path d="M85,410 L10,310" id="Shape" stroke="#888888" stroke-width="2"></path>
            <path d="M460,310 L385,410" id="Shape" stroke="#888888" stroke-width="2"></path>
            <path d="M85,410 C10,310 460,310 385,410" id="Shape" stroke="#FF0000" stroke-width="5"></path>
            <circle id="Oval" stroke="#888888" stroke-width="2" cx="85" cy="410" r="10"></circle>
            <circle id="Oval" stroke="#888888" stroke-width="2" cx="385" cy="410" r="10"></circle>
            <circle id="Oval" fill="#888888" cx="10" cy="310" r="10"></circle>
            <circle id="Oval" fill="#888888" cx="460" cy="310" r="10"></circle>
            <path d="M85,710 L160,610" id="Shape" stroke="#888888" stroke-width="2"></path>
            <path d="M310,610 L385,710" id="Shape" stroke="#888888" stroke-width="2"></path>
            <path d="M85,710 C160,610 310,610 385,710" id="Shape" stroke="#FF0000" stroke-width="5"></path>
            <circle id="Oval" stroke="#888888" stroke-width="2" cx="85" cy="710" r="10"></circle>
            <circle id="Oval" stroke="#888888" stroke-width="2" cx="385" cy="710" r="10"></circle>
            <circle id="Oval" fill="#888888" cx="160" cy="610" r="10"></circle>
            <circle id="Oval" fill="#888888" cx="310" cy="610" r="10"></circle>
            <path d="M585,110 L660,10" id="Shape" stroke="#888888" stroke-width="2"></path>
            <path d="M960,10 L885,110" id="Shape" stroke="#888888" stroke-width="2"></path>
            <path d="M585,110 C660,10 960,10 885,110" id="Shape" stroke="#FF0000" stroke-width="5"></path>
            <circle id="Oval" stroke="#888888" stroke-width="2" cx="585" cy="110" r="10"></circle>
            <circle id="Oval" stroke="#888888" stroke-width="2" cx="885" cy="110" r="10"></circle>
            <circle id="Oval" fill="#888888" cx="660" cy="10" r="10"></circle>
            <circle id="Oval" fill="#888888" cx="960" cy="10" r="10"></circle>
            <path d="M585,410 L585,260" id="Shape" stroke="#888888" stroke-width="2"></path>
            <path d="M885,560 L885,410" id="Shape" stroke="#888888" stroke-width="2"></path>
            <path d="M585,410 C585,260 885,560 885,410" id="Shape" stroke="#FF0000" stroke-width="5"></path>
            <circle id="Oval" stroke="#888888" stroke-width="2" cx="585" cy="410" r="10"></circle>
            <circle id="Oval" stroke="#888888" stroke-width="2" cx="885" cy="410" r="10"></circle>
            <circle id="Oval" fill="#888888" cx="585" cy="260" r="10"></circle>
            <circle id="Oval" fill="#888888" cx="885" cy="560" r="10"></circle>
            <path d="M585,710 L610,610" id="Shape" stroke="#888888" stroke-width="2"></path>
            <path d="M710,610 L735,710" id="Shape" stroke="#888888" stroke-width="2"></path>
            <path d="M735,710 L760,810" id="Shape" stroke="#888888" stroke-width="2"></path>
            <path d="M860,810 L885,710" id="Shape" stroke="#888888" stroke-width="2"></path>
            <path d="M585,710 C610,610 710,610 735,710 C760,810 860,810 885,710" id="Shape" stroke="#FF0000" stroke-width="5"></path>
            <circle id="Oval" stroke="#888888" stroke-width="2" cx="585" cy="710" r="10"></circle>
            <circle id="Oval" stroke="#888888" stroke-width="2" cx="735" cy="710" r="10"></circle>
            <circle id="Oval" stroke="#888888" stroke-width="2" cx="885" cy="710" r="10"></circle>
            <circle id="Oval" fill="#888888" cx="610" cy="610" r="10"></circle>
            <circle id="Oval" fill="#888888" cx="710" cy="610" r="10"></circle>
            <circle id="Oval" fill="#888888" cx="860" cy="810" r="10"></circle>
            <circle id="Oval" stroke="#4990E2" stroke-width="4" fill="#4990E2" cx="760" cy="810" r="9"></circle>
        </g>
    </g>
</svg>